<svg width="1536" height="150" viewBox="0 0 1536 150" fill="none" xmlns="http://www.w3.org/2000/svg">
<path d="M0 121.173L28.5013 119.979C56.832 118.955 113.835 116.565 170.667 123.733C227.499 130.901 284.501 147.285 341.333 143.701C398.165 139.947 455.168 116.053 512 109.568C568.832 102.912 625.835 113.835 682.667 116.565C739.499 119.467 796.501 114.347 853.333 110.421C910.165 106.325 967.168 103.595 1024 108.032C1080.83 112.64 1137.83 124.587 1194.67 134.485C1251.5 144.555 1308.5 152.405 1365.33 148.821C1422.17 145.067 1479.17 129.707 1507.5 122.027L1536 114.347V0H1507.5C1479.17 0 1422.17 0 1365.33 0C1308.5 0 1251.5 0 1194.67 0C1137.83 0 1080.83 0 1024 0C967.168 0 910.165 0 853.333 0C796.501 0 739.499 0 682.667 0C625.835 0 568.832 0 512 0C455.168 0 398.165 0 341.333 0C284.501 0 227.499 0 170.667 0C113.835 0 56.832 0 28.5013 0H0V121.173Z" fill="#2E4F83"/>
<path d="M0 75.0933L28.5013 78.5067C56.832 81.92 113.835 88.7467 170.667 89.2587C227.499 89.9413 284.501 84.1387 341.333 82.7733C398.165 81.408 455.168 84.1387 512 93.3547C568.832 102.4 625.835 117.76 682.667 120.32C739.499 122.88 796.501 112.64 853.333 110.933C910.165 109.227 967.168 116.053 1024 116.053C1080.83 116.053 1137.83 109.227 1194.67 106.325C1251.5 103.595 1308.5 104.619 1365.33 109.227C1422.17 113.835 1479.17 121.685 1507.5 125.781L1536 129.707V0H1507.5C1479.17 0 1422.17 0 1365.33 0C1308.5 0 1251.5 0 1194.67 0C1137.83 0 1080.83 0 1024 0C967.168 0 910.165 0 853.333 0C796.501 0 739.499 0 682.667 0C625.835 0 568.832 0 512 0C455.168 0 398.165 0 341.333 0C284.501 0 227.499 0 170.667 0C113.835 0 56.832 0 28.5013 0H0V75.0933Z" fill="#1A3865"/>
<path d="M0 52.9067L28.5013 50.8587C56.832 48.9813 113.835 44.8853 170.667 43.52C227.499 42.1547 284.501 43.1787 341.333 51.2C398.165 59.2213 455.168 73.8987 512 82.432C568.832 90.9653 625.835 93.3547 682.667 89.2587C739.499 85.3333 796.501 75.0933 853.333 66.048C910.165 56.832 967.168 48.9813 1024 50.3467C1080.83 51.712 1137.83 62.6347 1194.67 62.6347C1251.5 62.6347 1308.5 51.712 1365.33 50.688C1422.17 49.4933 1479.17 58.0267 1507.5 62.2933L1536 66.56V0H1507.5C1479.17 0 1422.17 0 1365.33 0C1308.5 0 1251.5 0 1194.67 0C1137.83 0 1080.83 0 1024 0C967.168 0 910.165 0 853.333 0C796.501 0 739.499 0 682.667 0C625.835 0 568.832 0 512 0C455.168 0 398.165 0 341.333 0C284.501 0 227.499 0 170.667 0C113.835 0 56.832 0 28.5013 0H0V52.9067Z" fill="#0F2A4F"/>
<path d="M0 32.4267L28.5013 29.5253C56.832 26.7947 113.835 20.992 170.667 24.2347C227.499 27.3067 284.501 39.2533 341.333 46.08C398.165 52.9067 455.168 54.6133 512 53.76C568.832 52.9067 625.835 49.4933 682.667 50.0053C739.499 50.688 796.501 55.1253 853.333 53.4187C910.165 51.712 967.168 43.8613 1024 36.6933C1080.83 29.5253 1137.83 23.3813 1194.67 27.8187C1251.5 32.4267 1308.5 47.7867 1365.33 48.128C1422.17 48.2987 1479.17 33.6213 1507.5 26.112L1536 18.7733V0H1507.5C1479.17 0 1422.17 0 1365.33 0C1308.5 0 1251.5 0 1194.67 0C1137.83 0 1080.83 0 1024 0C967.168 0 910.165 0 853.333 0C796.501 0 739.499 0 682.667 0C625.835 0 568.832 0 512 0C455.168 0 398.165 0 341.333 0C284.501 0 227.499 0 170.667 0C113.835 0 56.832 0 28.5013 0H0V32.4267Z" fill="#102D57"/>
</svg>
