<svg width="260" height="148" viewBox="0 0 260 148" fill="none" xmlns="http://www.w3.org/2000/svg">
<g filter="url(#filter0_d_21_5)">
<path d="M236.526 139.815L176.605 139.815L196.079 69.9074L176.605 -0.000113737L236.526 -0.000113737L256 69.9074L236.526 139.815Z" fill="#CC3501"/>
<path fill-rule="evenodd" clip-rule="evenodd" d="M116.684 69.9074L97.21 139.815L157.131 139.815L176.605 69.9074L157.131 -0.000113737L97.21 -0.000113737L116.684 69.9074ZM99.8399 1.99725L118.758 69.9074L99.8399 137.818L155.614 137.818L174.532 69.9074L155.614 1.99725L99.8399 1.99725Z" fill="#CC3501"/>
<path d="M79.1839 132.824L80.8531 126.832L20.9324 126.832L19.2631 132.824H79.1839Z" fill="#CC3501"/>
<path d="M81.9659 122.837L83.6351 116.845L23.7144 116.845L22.0452 122.837H81.9659Z" fill="#CC3501"/>
<path d="M84.748 112.851L86.4172 106.859H26.4964L24.8272 112.851L84.748 112.851Z" fill="#CC3501"/>
<path d="M87.53 102.864L89.1992 96.8717H29.2785L27.6093 102.864H87.53Z" fill="#CC3501"/>
<path d="M90.312 92.877L91.9812 86.885L32.0605 86.885L30.3913 92.877L90.312 92.877Z" fill="#CC3501"/>
<path d="M93.094 82.8902L94.7633 76.8982L34.8425 76.8982L33.1733 82.8902L93.094 82.8902Z" fill="#CC3501"/>
<path d="M96.7107 69.9074L95.8761 66.9114L35.9554 66.9114L36.79 69.9074L35.9554 72.9034L95.8761 72.9034L96.7107 69.9074Z" fill="#CC3501"/>
<path d="M94.7633 62.9167L93.094 56.9246L33.1733 56.9246L34.8425 62.9167L94.7633 62.9167Z" fill="#CC3501"/>
<path d="M91.9812 52.9299L90.312 46.9378L30.3913 46.9378L32.0605 52.9299L91.9812 52.9299Z" fill="#CC3501"/>
<path d="M89.1992 42.9431L87.53 36.951L27.6093 36.951L29.2785 42.9431L89.1992 42.9431Z" fill="#CC3501"/>
<path d="M86.4172 32.9563L84.748 26.9642L24.8272 26.9642L26.4964 32.9563L86.4172 32.9563Z" fill="#CC3501"/>
<path d="M83.6351 22.9695L81.9659 16.9774L22.0452 16.9774L23.7144 22.9695L83.6351 22.9695Z" fill="#CC3501"/>
<path d="M80.8531 12.9827L79.1839 6.99064H19.2631L20.9324 12.9827L80.8531 12.9827Z" fill="#CC3501"/>
<path d="M17.3157 -0.000113737L18.1504 2.99592H78.0711L77.2365 -0.000113737H17.3157Z" fill="#CC3501"/>
<path d="M78.0711 136.819H18.1504L17.3157 139.815H77.2365L78.0711 136.819Z" fill="#CC3501"/>
</g>
<g filter="url(#filter1_d_21_5)">
<path d="M223.21 139.815L163.289 139.815L182.764 69.9074L163.289 -0.000113737L223.21 -0.000113737L242.684 69.9074L223.21 139.815Z" fill="#EFECEC"/>
<path fill-rule="evenodd" clip-rule="evenodd" d="M103.369 69.9074L83.8944 139.815L143.815 139.815L163.289 69.9074L143.815 -0.000113737L83.8944 -0.000113737L103.369 69.9074ZM86.5242 1.99725L105.442 69.9074L86.5242 137.818L142.298 137.818L161.216 69.9074L142.298 1.99725L86.5242 1.99725Z" fill="#EFECEC"/>
<path d="M65.8682 132.824L67.5374 126.832L7.61668 126.832L5.94746 132.824H65.8682Z" fill="#EFECEC"/>
<path d="M68.6502 122.837L70.3195 116.845L10.3987 116.845L8.72951 122.837H68.6502Z" fill="#EFECEC"/>
<path d="M71.4323 112.851L73.1015 106.859H13.1808L11.5115 112.851L71.4323 112.851Z" fill="#EFECEC"/>
<path d="M74.2143 102.864L75.8835 96.8717H15.9628L14.2936 102.864H74.2143Z" fill="#EFECEC"/>
<path d="M76.9964 92.877L78.6656 86.885L18.7448 86.885L17.0756 92.877L76.9964 92.877Z" fill="#EFECEC"/>
<path d="M79.7784 82.8902L81.4476 76.8982L21.5269 76.8982L19.8576 82.8902L79.7784 82.8902Z" fill="#EFECEC"/>
<path d="M83.395 69.9074L82.5604 66.9114L22.6397 66.9114L23.4743 69.9074L22.6397 72.9034L82.5604 72.9034L83.395 69.9074Z" fill="#EFECEC"/>
<path d="M81.4476 62.9167L79.7784 56.9246L19.8576 56.9246L21.5269 62.9167L81.4476 62.9167Z" fill="#EFECEC"/>
<path d="M78.6656 52.9299L76.9964 46.9378L17.0756 46.9378L18.7448 52.9299L78.6656 52.9299Z" fill="#EFECEC"/>
<path d="M75.8835 42.9431L74.2143 36.951L14.2936 36.951L15.9628 42.9431L75.8835 42.9431Z" fill="#EFECEC"/>
<path d="M73.1015 32.9563L71.4323 26.9642L11.5115 26.9642L13.1808 32.9563L73.1015 32.9563Z" fill="#EFECEC"/>
<path d="M70.3195 22.9695L68.6502 16.9774L8.72951 16.9774L10.3987 22.9695L70.3195 22.9695Z" fill="#EFECEC"/>
<path d="M67.5374 12.9827L65.8682 6.99064H5.94746L7.61668 12.9827L67.5374 12.9827Z" fill="#EFECEC"/>
<path d="M4.00004 -0.000113737L4.83469 2.99592H64.7554L63.9208 -0.000113737H4.00004Z" fill="#EFECEC"/>
<path d="M64.7554 136.819H4.83469L4.00004 139.815H63.9208L64.7554 136.819Z" fill="#EFECEC"/>
</g>
<defs>
<filter id="filter0_d_21_5" x="13.3157" y="0" width="246.684" height="147.815" filterUnits="userSpaceOnUse" color-interpolation-filters="sRGB">
<feFlood flood-opacity="0" result="BackgroundImageFix"/>
<feColorMatrix in="SourceAlpha" type="matrix" values="0 0 0 0 0 0 0 0 0 0 0 0 0 0 0 0 0 0 127 0" result="hardAlpha"/>
<feOffset dy="4"/>
<feGaussianBlur stdDeviation="2"/>
<feComposite in2="hardAlpha" operator="out"/>
<feColorMatrix type="matrix" values="0 0 0 0 0 0 0 0 0 0 0 0 0 0 0 0 0 0 0.25 0"/>
<feBlend mode="normal" in2="BackgroundImageFix" result="effect1_dropShadow_21_5"/>
<feBlend mode="normal" in="SourceGraphic" in2="effect1_dropShadow_21_5" result="shape"/>
</filter>
<filter id="filter1_d_21_5" x="0" y="0" width="246.684" height="147.815" filterUnits="userSpaceOnUse" color-interpolation-filters="sRGB">
<feFlood flood-opacity="0" result="BackgroundImageFix"/>
<feColorMatrix in="SourceAlpha" type="matrix" values="0 0 0 0 0 0 0 0 0 0 0 0 0 0 0 0 0 0 127 0" result="hardAlpha"/>
<feOffset dy="4"/>
<feGaussianBlur stdDeviation="2"/>
<feComposite in2="hardAlpha" operator="out"/>
<feColorMatrix type="matrix" values="0 0 0 0 0 0 0 0 0 0 0 0 0 0 0 0 0 0 0.25 0"/>
<feBlend mode="normal" in2="BackgroundImageFix" result="effect1_dropShadow_21_5"/>
<feBlend mode="normal" in="SourceGraphic" in2="effect1_dropShadow_21_5" result="shape"/>
</filter>
</defs>
</svg>
