<svg width="291" height="113" viewBox="0 0 291 113" fill="none" xmlns="http://www.w3.org/2000/svg">
<path fill-rule="evenodd" clip-rule="evenodd" d="M213.333 110.462L215.575 111.568L217.805 110.439L287.623 75.076C290.086 73.8283 291.072 70.8197 289.824 68.3563C288.576 65.8928 285.568 64.9073 283.104 66.155L215.517 100.388L147.578 66.8582L145.336 65.7518L143.106 66.8814L75.519 101.115L7.58016 67.5846C5.10391 66.3625 2.10579 67.3791 0.883663 69.8554C-0.33846 72.3317 0.678238 75.3298 3.15452 76.5519L73.3352 111.188L75.577 112.295L77.8072 111.165L145.394 76.932L213.333 110.462ZM213.048 55.4627L215.29 56.5691L217.52 55.4394L287.337 20.0767C289.801 18.829 290.786 15.8205 289.539 13.357C288.291 10.8936 285.282 9.90805 282.819 11.1558L215.232 45.3889L147.293 11.8589L145.051 10.7525L142.821 11.8821L75.2336 46.1152L7.29481 12.5853C4.81855 11.3632 1.82043 12.3799 0.598307 14.8562C-0.623817 17.3324 0.392881 20.3305 2.86916 21.5527L73.0498 56.189L75.2916 57.2954L77.5219 56.1658L145.109 21.9327L213.048 55.4627Z" fill="#B35151"/>
<path fill-rule="evenodd" clip-rule="evenodd" d="M213.281 100.462L215.523 101.568L217.753 100.439L287.571 65.076C290.034 63.8283 291.02 60.8197 289.772 58.3563C288.524 55.8928 285.516 54.9073 283.052 56.155L215.465 90.3881L147.526 56.8582L145.285 55.7518L143.054 56.8814L75.4671 91.1145L7.52828 57.5846C5.05203 56.3625 2.05391 57.3791 0.831783 59.8554C-0.39034 62.3317 0.626358 65.3298 3.10264 66.5519L73.2833 101.188L75.5251 102.295L77.7554 101.165L145.343 66.932L213.281 100.462ZM212.996 45.4627L215.238 46.5691L217.468 45.4394L287.286 10.0767C289.749 8.82899 290.735 5.82047 289.487 3.35702C288.239 0.893567 285.231 -0.0919511 282.767 1.15579L215.18 35.3889L147.241 1.85895L144.999 0.752528L142.769 1.88215L75.1817 36.1152L7.24293 2.58531C4.76667 1.3632 1.76855 2.37988 0.546427 4.85615C-0.675697 7.33242 0.341001 10.3305 2.81728 11.5527L72.9979 46.189L75.2398 47.2954L77.47 46.1658L145.057 11.9327L212.996 45.4627Z" fill="#E5D1D1"/>
</svg>
