<svg width="156" height="166" viewBox="0 0 156 166" fill="none" xmlns="http://www.w3.org/2000/svg">
<path d="M-11.5001 40.2695C-34.5576 40.2695 -53.3049 21.522 -53.3049 -1.53548C-53.3049 -24.593 -34.5576 -43.3403 -11.5001 -43.3403C11.5574 -43.3403 30.3049 -24.593 30.3049 -1.53548C30.2699 21.522 11.5224 40.2695 -11.5001 40.2695ZM-11.5001 -25.7844C-24.8861 -25.7844 -35.784 -14.8864 -35.784 -1.50041C-35.784 11.8856 -24.8861 22.7835 -11.5001 22.7835C1.8859 22.7835 12.784 11.8856 12.784 -1.50041C12.784 -14.8864 1.8859 -25.7844 -11.5001 -25.7844Z" fill="#F17575"/>
<path d="M-11.4299 72.1227C-16.4759 72.1227 -21.522 71.5971 -26.4979 70.5809C-45.7359 66.5861 -62.2756 55.3026 -73.0685 38.868C-83.8614 22.4334 -87.5759 2.77481 -83.5811 -16.4982C-80.112 -33.1781 -70.8959 -48.211 -57.6852 -58.8637C-44.6145 -69.3763 -28.25 -75.1582 -11.5701 -75.1582C-6.52402 -75.1582 -1.478 -74.6326 3.49795 -73.6164C22.7359 -69.6216 39.2756 -58.3382 50.0685 -41.9035C60.8614 -25.4689 64.5758 -5.81036 60.5811 13.4627C57.1119 30.1426 47.896 45.1755 34.6852 55.8282C21.5795 66.3408 5.21496 72.1227 -11.4299 72.1227ZM-11.5701 -57.6373C-37.9566 -57.6373 -61.0492 -38.8549 -66.4456 -12.959C-72.7531 17.3171 -53.2348 47.1028 -22.9586 53.4104C-19.1741 54.2163 -15.2846 54.6017 -11.465 54.6017C14.9215 54.6017 38.0141 35.8193 43.4106 9.9234C46.4592 -4.75913 43.6207 -19.722 35.4209 -32.267C27.2211 -44.812 14.6061 -53.3973 -0.0763931 -56.4459C-3.86091 -57.2168 -7.75049 -57.6373 -11.5701 -57.6373Z" fill="#F17575"/>
<path d="M-11.395 102.925C-14.6188 102.925 -17.8778 102.785 -21.1367 102.469C-48.9249 99.9111 -74.0148 86.6652 -91.851 65.2196C-109.687 43.774 -118.062 16.6517 -115.504 -11.1015C-113.086 -37.1726 -101.102 -61.2464 -81.6889 -78.8024C-62.4159 -96.2883 -37.5362 -105.89 -11.6403 -105.89C-8.41646 -105.89 -5.15764 -105.75 -1.89874 -105.434C25.8894 -102.876 50.9795 -89.6303 68.8158 -68.1847C86.6521 -46.7391 95.0271 -19.6166 92.4691 8.17155C90.0512 34.2427 78.0668 58.3163 58.6537 75.8723C39.3806 93.2881 14.501 102.925 -11.395 102.925ZM-11.6403 -88.4038C-56.7392 -88.4038 -93.8835 -54.4832 -98.0535 -9.48951C-102.469 38.2375 -67.2517 80.638 -19.5247 85.0533C-16.8265 85.2986 -14.0932 85.4388 -11.395 85.4388C33.7039 85.4388 70.8481 51.5182 75.0181 6.52451C79.4334 -41.2025 44.2165 -83.603 -3.51054 -88.0183C-6.20876 -88.2986 -8.94209 -88.4038 -11.6403 -88.4038Z" fill="#F17575"/>
<path d="M-11.4298 134.322C-13.0067 134.322 -14.6187 134.287 -16.2306 134.252C-34.5575 133.621 -52.2185 129.416 -68.7232 121.742C-84.6673 114.348 -98.8242 104.046 -110.879 91.1504C-122.933 78.255 -132.184 63.3972 -138.457 46.9977C-144.974 30.0024 -147.918 12.096 -147.287 -6.23087C-146.061 -41.6582 -131.343 -74.7027 -105.798 -99.302C-80.3572 -123.831 -46.8922 -137.357 -11.605 -137.357C-10.0282 -137.357 -8.41634 -137.322 -6.80441 -137.287C11.5225 -136.657 29.1837 -132.452 45.6884 -124.777C61.6324 -117.384 75.7892 -107.081 87.8436 -94.1859C99.898 -81.2905 109.149 -66.4328 115.422 -50.0332C121.939 -33.0379 124.883 -15.1315 124.252 3.19536C123.026 38.6227 108.308 71.6671 82.7626 96.2665C57.3222 120.831 23.8573 134.322 -11.4298 134.322ZM-11.605 -119.837C-75.6615 -119.837 -127.559 -69.6567 -129.766 -5.60019C-132.044 59.6127 -80.8127 114.488 -15.6349 116.766C-14.2332 116.801 -12.8315 116.836 -11.4649 116.836C52.5916 116.836 104.489 66.6562 106.696 2.59975C108.974 -62.6131 57.7427 -117.489 -7.4351 -119.766C-8.80174 -119.801 -10.2034 -119.837 -11.605 -119.837Z" fill="#F17575"/>
<path d="M-11.5 166C-34.102 166 -56.0382 161.585 -76.7129 152.824C-96.6517 144.379 -114.558 132.325 -129.941 116.941C-145.325 101.558 -157.414 83.6517 -165.824 63.7129C-174.55 43.0382 -179 21.102 -179 -1.5C-179 -24.102 -174.585 -46.0382 -165.824 -66.7129C-157.379 -86.6517 -145.325 -104.558 -129.941 -119.941C-114.558 -135.325 -96.6517 -147.414 -76.7129 -155.824C-56.0382 -164.55 -34.102 -169 -11.5 -169C11.102 -169 33.0382 -164.585 53.7129 -155.824C73.6517 -147.379 91.5581 -135.325 106.941 -119.941C122.325 -104.558 134.414 -86.6517 142.824 -66.7129C151.55 -46.0382 156 -24.102 156 -1.5C156 21.102 151.585 43.0382 142.824 63.7129C134.379 83.6517 122.325 101.558 106.941 116.941C91.5581 132.325 73.6517 144.414 53.7129 152.824C33.0382 161.585 11.102 166 -11.5 166ZM-11.5 -151.514C-94.1987 -151.514 -161.479 -84.2338 -161.479 -1.53506C-161.479 81.1637 -94.1987 148.444 -11.5 148.444C71.1987 148.444 138.479 81.1637 138.479 -1.53506C138.479 -84.1988 71.1987 -151.514 -11.5 -151.514Z" fill="#F17575"/>
</svg>
